<svg xmlns="http://www.w3.org/2000/svg" fill-rule="evenodd" viewBox="0 0 100 100">
    <path d="M87.208 24.943c1.485-7.46 2.145-17.094-3.15-20.621-5.294-3.531-13.932.786-20.246 5.029-6.763 4.545-13.882 11.161-16.929 15.733l-2.338 3.509c-3.466-.098-15.134-.286-19.361 1.438-4.613 1.886-13.018 11.827-13.422 15.877-.146 1.454.58 2.169 1.023 2.463.865.578 3.286.787 6.339.787 3.672 0 8.248-.303 12.14-.631l-1.023 1.535-.016.02c-.005.007-.007.016-.012.023l-6.438 9.664c-4.319 6.481-4.305 14.946-.077 21.405l-2.769 4.155c-1.094 1.642-1.455 3.625-1.016 5.586a7.702 7.702 0 0 0 3.279 4.736 7.764 7.764 0 0 0 4.313 1.315c2.388 0 4.7-1.117 6.087-3.197l2.763-4.147a19.23 19.23 0 0 0 3.55.333c6.394 0 12.541-3.177 16.192-8.653l7.999-12.005c2.19 6.809 5.352 15.727 7.257 16.994.262.174.695.383 1.271.383.402 0 .873-.103 1.403-.389 3.581-1.936 9.517-13.521 9.479-18.502-.032-4.565-4.705-15.265-6.129-18.42l1.825-2.739c3.048-4.568 6.415-13.686 8.006-21.681zm-37.829 1.805c2.449-3.675 8.768-9.975 16.106-14.907 7.736-5.198 13.897-7.03 16.909-5.022 3.009 2.004 3.691 8.396 1.871 17.539-1.727 8.674-5.109 16.93-7.559 20.603L60.884 68.709l-18.73-12.478c-.007-.005-.012-.011-.02-.016-.007-.005-.015-.007-.023-.012l-8.557-5.701 12.955-19.446c.039-.05.073-.103.106-.158l2.764-4.15zM14.766 45.972c.475-2.549 7.551-11.527 11.552-13.163 2.878-1.173 11.158-1.322 16.254-1.254l-9.175 13.772c-7.719.708-16.505 1.109-18.631.645zm11.505 15.462 5.621-8.437 7.33 4.883-13.685 20.536c-2.891-5.293-2.674-11.868.734-16.982zm4.826 30.672c-1.326 1.987-4.126 2.46-6.241 1.049a4.715 4.715 0 0 1-2.016-2.896c-.258-1.152-.05-2.312.585-3.266l3.321-4.983c.022-.032.045-.063.064-.096l14.908-22.371 7.67 5.11-18.291 27.453zm22.506-12.468c-3.413 5.118-9.404 7.851-15.403 7.217l13.685-20.539 7.337 4.888-5.619 8.434zm26.904-11.832c.033 4.319-5.507 14.278-7.685 15.726-1.304-1.896-4.29-10.094-6.592-17.437l9.174-13.77c2.027 4.675 5.08 12.373 5.103 15.481z"/>
    <path d="M57.502 43.158a11.679 11.679 0 0 0 6.501 1.971c3.803 0 7.541-1.839 9.808-5.236l.001-.001c3.59-5.398 2.122-12.714-3.272-16.309a11.685 11.685 0 0 0-8.83-1.743 11.668 11.668 0 0 0-7.474 5.01 11.677 11.677 0 0 0-1.746 8.83 11.686 11.686 0 0 0 5.012 7.478zm-.769-14.646a8.692 8.692 0 0 1 5.565-3.731 8.694 8.694 0 0 1 6.578 1.299c4.019 2.678 5.112 8.127 2.438 12.149-2.684 4.022-8.134 5.11-12.148 2.434a8.705 8.705 0 0 1-3.735-5.571 8.697 8.697 0 0 1 1.302-6.58z"/>
</svg>
